<?xml version="1.0" encoding="UTF-8" standalone="no"?>
<!DOCTYPE svg PUBLIC "-//W3C//DTD SVG 1.1//EN"
 "http://www.w3.org/Graphics/SVG/1.1/DTD/svg11.dtd">
<!-- Generated by graphviz version 2.42.4 (0)
 -->
<!-- Title: G Pages: 1 -->
<svg width="351pt" height="237pt"
 viewBox="0.00 0.00 350.80 236.80" xmlns="http://www.w3.org/2000/svg" xmlns:xlink="http://www.w3.org/1999/xlink">
<g id="graph0" class="graph" transform="scale(1 1) rotate(0) translate(14.4 222.4)">
<title>G</title>
<!-- Contact -->
<g id="node1" class="node">
<title>Contact</title>
<path fill="none" stroke="black" d="M194,-208C194,-208 127,-208 127,-208 121,-208 115,-202 115,-196 115,-196 115,-184 115,-184 115,-178 121,-172 127,-172 127,-172 194,-172 194,-172 200,-172 206,-178 206,-184 206,-184 206,-196 206,-196 206,-202 200,-208 194,-208"/>
<text text-anchor="middle" x="160.5" y="-187.2" font-family="Arial" font-size="11.00">Object: Contact</text>
</g>
<!-- John -->
<g id="node2" class="node">
<title>John</title>
<path fill="none" stroke="black" d="M124.5,-132C124.5,-132 36.5,-132 36.5,-132 30.5,-132 24.5,-126 24.5,-120 24.5,-120 24.5,-108 24.5,-108 24.5,-102 30.5,-96 36.5,-96 36.5,-96 124.5,-96 124.5,-96 130.5,-96 136.5,-102 136.5,-108 136.5,-108 136.5,-120 136.5,-120 136.5,-126 130.5,-132 124.5,-132"/>
<text text-anchor="middle" x="80.5" y="-111.2" font-family="Arial" font-size="11.00">Record: John Smith</text>
</g>
<!-- Contact&#45;&gt;John -->
<g id="edge1" class="edge">
<title>Contact&#45;&gt;John</title>
<path fill="none" stroke="black" d="M141.95,-171.84C131.44,-162.12 118.14,-149.82 106.61,-139.15"/>
<polygon fill="black" stroke="black" points="108.67,-136.29 98.95,-132.07 103.92,-141.43 108.67,-136.29"/>
</g>
<!-- Jane -->
<g id="node3" class="node">
<title>Jane</title>
<path fill="none" stroke="black" d="M284.5,-132C284.5,-132 196.5,-132 196.5,-132 190.5,-132 184.5,-126 184.5,-120 184.5,-120 184.5,-108 184.5,-108 184.5,-102 190.5,-96 196.5,-96 196.5,-96 284.5,-96 284.5,-96 290.5,-96 296.5,-102 296.5,-108 296.5,-108 296.5,-120 296.5,-120 296.5,-126 290.5,-132 284.5,-132"/>
<text text-anchor="middle" x="240.5" y="-111.2" font-family="Arial" font-size="11.00">Record: Jane Smith</text>
</g>
<!-- Contact&#45;&gt;Jane -->
<g id="edge2" class="edge">
<title>Contact&#45;&gt;Jane</title>
<path fill="none" stroke="black" d="M179.05,-171.84C189.56,-162.12 202.86,-149.82 214.39,-139.15"/>
<polygon fill="black" stroke="black" points="217.08,-141.43 222.05,-132.07 212.33,-136.29 217.08,-141.43"/>
</g>
<!-- JP -->
<g id="node4" class="node">
<title>JP</title>
<path fill="none" stroke="black" d="M133,-56C133,-56 12,-56 12,-56 6,-56 0,-50 0,-44 0,-44 0,-12 0,-12 0,-6 6,0 12,0 12,0 133,0 133,0 139,0 145,-6 145,-12 145,-12 145,-44 145,-44 145,-50 139,-56 133,-56"/>
<text text-anchor="middle" x="72.5" y="-43.2" font-family="Arial" font-size="11.00">Properties</text>
<text text-anchor="middle" x="72.5" y="-31.2" font-family="Arial" font-size="11.00">First name: John</text>
<text text-anchor="middle" x="72.5" y="-19.2" font-family="Arial" font-size="11.00">Last name: Smith</text>
<text text-anchor="middle" x="72.5" y="-7.2" font-family="Arial" font-size="11.00">Email: john@example.com</text>
</g>
<!-- John&#45;&gt;JP -->
<g id="edge3" class="edge">
<title>John&#45;&gt;JP</title>
<path fill="none" stroke="black" d="M78.84,-95.6C78.03,-87.09 77.02,-76.51 76.05,-66.3"/>
<polygon fill="black" stroke="black" points="79.53,-65.93 75.1,-56.31 72.56,-66.59 79.53,-65.93"/>
</g>
<!-- JnP -->
<g id="node5" class="node">
<title>JnP</title>
<path fill="none" stroke="black" d="M310,-56C310,-56 189,-56 189,-56 183,-56 177,-50 177,-44 177,-44 177,-12 177,-12 177,-6 183,0 189,0 189,0 310,0 310,0 316,0 322,-6 322,-12 322,-12 322,-44 322,-44 322,-50 316,-56 310,-56"/>
<text text-anchor="middle" x="249.5" y="-43.2" font-family="Arial" font-size="11.00">Properties</text>
<text text-anchor="middle" x="249.5" y="-31.2" font-family="Arial" font-size="11.00">First name: Jane</text>
<text text-anchor="middle" x="249.5" y="-19.2" font-family="Arial" font-size="11.00">Last name: Smith</text>
<text text-anchor="middle" x="249.5" y="-7.2" font-family="Arial" font-size="11.00">Email: jane@example.com</text>
</g>
<!-- Jane&#45;&gt;JnP -->
<g id="edge4" class="edge">
<title>Jane&#45;&gt;JnP</title>
<path fill="none" stroke="black" d="M242.36,-95.6C243.28,-87.09 244.41,-76.51 245.5,-66.3"/>
<polygon fill="black" stroke="black" points="248.99,-66.62 246.57,-56.31 242.03,-65.88 248.99,-66.62"/>
</g>
</g>
</svg>
