<?xml version="1.0" encoding="UTF-8" standalone="no"?>
<!DOCTYPE svg PUBLIC "-//W3C//DTD SVG 1.1//EN"
 "http://www.w3.org/Graphics/SVG/1.1/DTD/svg11.dtd">
<!-- Generated by graphviz version 2.42.4 (0)
 -->
<!-- Title: G Pages: 1 -->
<svg width="373pt" height="237pt"
 viewBox="0.00 0.00 373.30 236.80" xmlns="http://www.w3.org/2000/svg" xmlns:xlink="http://www.w3.org/1999/xlink">
<g id="graph0" class="graph" transform="scale(1 1) rotate(0) translate(14.4 222.4)">
<title>G</title>
<!-- O -->
<g id="node1" class="node">
<title>O</title>
<path fill="none" stroke="black" d="M188,-122C188,-122 158,-122 158,-122 152,-122 146,-116 146,-110 146,-110 146,-98 146,-98 146,-92 152,-86 158,-86 158,-86 188,-86 188,-86 194,-86 200,-92 200,-98 200,-98 200,-110 200,-110 200,-116 194,-122 188,-122"/>
<text text-anchor="middle" x="173" y="-101.5" font-family="Arial" font-size="10.00">Object</text>
</g>
<!-- R -->
<g id="node2" class="node">
<title>R</title>
<path fill="none" stroke="black" d="M72,-36C72,-36 42,-36 42,-36 36,-36 30,-30 30,-24 30,-24 30,-12 30,-12 30,-6 36,0 42,0 42,0 72,0 72,0 78,0 84,-6 84,-12 84,-12 84,-24 84,-24 84,-30 78,-36 72,-36"/>
<text text-anchor="middle" x="57" y="-15.5" font-family="Arial" font-size="10.00">Record</text>
</g>
<!-- O&#45;&gt;R -->
<g id="edge1" class="edge">
<title>O&#45;&gt;R</title>
<path fill="none" stroke="black" d="M149.25,-85.8C131.81,-73.17 107.94,-55.89 88.85,-42.06"/>
<polygon fill="black" stroke="black" points="90.87,-39.21 80.72,-36.18 86.77,-44.88 90.87,-39.21"/>
<text text-anchor="middle" x="136.5" y="-58.8" font-family="Arial" font-size="9.00">contains</text>
</g>
<!-- P -->
<g id="node3" class="node">
<title>P</title>
<path fill="none" stroke="black" d="M188,-36C188,-36 158,-36 158,-36 152,-36 146,-30 146,-24 146,-24 146,-12 146,-12 146,-6 152,0 158,0 158,0 188,0 188,0 194,0 200,-6 200,-12 200,-12 200,-24 200,-24 200,-30 194,-36 188,-36"/>
<text text-anchor="middle" x="173" y="-15.5" font-family="Arial" font-size="10.00">Property</text>
</g>
<!-- O&#45;&gt;P -->
<g id="edge2" class="edge">
<title>O&#45;&gt;P</title>
<path fill="none" stroke="black" d="M173,-85.6C173,-74.26 173,-59.23 173,-46.32"/>
<polygon fill="black" stroke="black" points="176.5,-46.1 173,-36.1 169.5,-46.1 176.5,-46.1"/>
<text text-anchor="middle" x="188.5" y="-58.8" font-family="Arial" font-size="9.00">defines</text>
</g>
<!-- T -->
<g id="node6" class="node">
<title>T</title>
<path fill="none" stroke="black" d="M274,-36C274,-36 244,-36 244,-36 238,-36 232,-30 232,-24 232,-24 232,-12 232,-12 232,-6 238,0 244,0 244,0 274,0 274,0 280,0 286,-6 286,-12 286,-12 286,-24 286,-24 286,-30 280,-36 274,-36"/>
<text text-anchor="middle" x="259" y="-15.5" font-family="Arial" font-size="10.00">Trait</text>
</g>
<!-- O&#45;&gt;T -->
<g id="edge5" class="edge">
<title>O&#45;&gt;T</title>
<path fill="none" stroke="black" d="M191.35,-85.78C197.9,-79.58 205.31,-72.51 212,-66 219.41,-58.79 227.39,-50.87 234.63,-43.62"/>
<polygon fill="black" stroke="black" points="237.56,-45.63 242.14,-36.08 232.6,-40.69 237.56,-45.63"/>
<text text-anchor="middle" x="267.5" y="-58.8" font-family="Arial" font-size="9.00">has behaviour through</text>
</g>
<!-- E -->
<g id="node4" class="node">
<title>E</title>
<path fill="none" stroke="black" d="M269.5,-208C269.5,-208 204.5,-208 204.5,-208 198.5,-208 192.5,-202 192.5,-196 192.5,-196 192.5,-184 192.5,-184 192.5,-178 198.5,-172 204.5,-172 204.5,-172 269.5,-172 269.5,-172 275.5,-172 281.5,-178 281.5,-184 281.5,-184 281.5,-196 281.5,-196 281.5,-202 275.5,-208 269.5,-208"/>
<text text-anchor="middle" x="237" y="-187.5" font-family="Arial" font-size="10.00">Extended Object</text>
</g>
<!-- E&#45;&gt;O -->
<g id="edge3" class="edge">
<title>E&#45;&gt;O</title>
<path fill="none" stroke="black" d="M192.16,-172.95C183.33,-167.67 175.2,-160.81 170,-152 166.56,-146.18 165.66,-139.21 166.01,-132.45"/>
<polygon fill="black" stroke="black" points="169.53,-132.57 167.41,-122.19 162.59,-131.62 169.53,-132.57"/>
<text text-anchor="middle" x="215.5" y="-144.8" font-family="Arial" font-size="9.00">extends data model of</text>
</g>
<!-- S -->
<g id="node5" class="node">
<title>S</title>
<path fill="none" stroke="black" d="M332.5,-122C332.5,-122 269.5,-122 269.5,-122 263.5,-122 257.5,-116 257.5,-110 257.5,-110 257.5,-98 257.5,-98 257.5,-92 263.5,-86 269.5,-86 269.5,-86 332.5,-86 332.5,-86 338.5,-86 344.5,-92 344.5,-98 344.5,-98 344.5,-110 344.5,-110 344.5,-116 338.5,-122 332.5,-122"/>
<text text-anchor="middle" x="301" y="-101.5" font-family="Arial" font-size="10.00">Shared Property</text>
</g>
<!-- E&#45;&gt;S -->
<g id="edge4" class="edge">
<title>E&#45;&gt;S</title>
<path fill="none" stroke="black" d="M250.26,-171.6C259.33,-159.69 271.5,-143.71 281.65,-130.4"/>
<polygon fill="black" stroke="black" points="284.7,-132.17 287.98,-122.1 279.13,-127.93 284.7,-132.17"/>
<text text-anchor="middle" x="287.5" y="-144.8" font-family="Arial" font-size="9.00">exposes</text>
</g>
<!-- Rel -->
<g id="node7" class="node">
<title>Rel</title>
<path fill="none" stroke="black" d="M42,-122C42,-122 12,-122 12,-122 6,-122 0,-116 0,-110 0,-110 0,-98 0,-98 0,-92 6,-86 12,-86 12,-86 42,-86 42,-86 48,-86 54,-92 54,-98 54,-98 54,-110 54,-110 54,-116 48,-122 42,-122"/>
<text text-anchor="middle" x="27" y="-101.5" font-family="Arial" font-size="10.00">Relation</text>
</g>
<!-- Rel&#45;&gt;R -->
<g id="edge6" class="edge">
<title>Rel&#45;&gt;R</title>
<path fill="none" stroke="black" d="M22.55,-85.96C20.98,-76.8 20.39,-65.47 24,-56 25.55,-51.93 27.78,-48.02 30.36,-44.37"/>
<polygon fill="black" stroke="black" points="33.27,-46.34 36.85,-36.37 27.83,-41.93 33.27,-46.34"/>
<text text-anchor="middle" x="42.5" y="-58.8" font-family="Arial" font-size="9.00">connects</text>
</g>
</g>
</svg>
